<?xml version="1.0" encoding="utf-8"?>
<!-- Generator: Adobe Illustrator 17.0.0, SVG Export Plug-In . SVG Version: 6.00 Build 0)  -->
<!DOCTYPE svg PUBLIC "-//W3C//DTD SVG 1.1//EN" "http://www.w3.org/Graphics/SVG/1.1/DTD/svg11.dtd">
<svg version="1.1" id="Ebene_1" xmlns="http://www.w3.org/2000/svg" xmlns:xlink="http://www.w3.org/1999/xlink" x="0px" y="0px"
	 width="40.77px" height="31.379px" viewBox="0 0 40.77 31.379" enable-background="new 0 0 40.77 31.379" xml:space="preserve">
<g id="XMLID_1362_">
	<path id="XMLID_1372_" fill="#272525" d="M5.408,10.744h16.873c0.276,0,0.501-0.225,0.501-0.5c0-0.277-0.225-0.502-0.501-0.502
		H5.408c-0.277,0-0.501,0.225-0.501,0.502C4.907,10.519,5.131,10.744,5.408,10.744z"/>
	<path id="XMLID_1371_" fill="#272525" d="M22.281,23.555H5.408c-0.277,0-0.501,0.224-0.501,0.5c0,0.277,0.224,0.501,0.501,0.501
		h16.873c0.276,0,0.501-0.224,0.501-0.501C22.782,23.778,22.557,23.555,22.281,23.555z"/>
	<path id="XMLID_1364_" fill="#272525" d="M39.856,1.148c-0.01-0.012-0.023-0.025-0.032-0.034c-0.652-0.652-1.377-0.983-2.139-0.978
		c-1.191,0.006-2.041,0.833-2.107,0.9l-6.512,6.512c-0.094,0.094-0.147,0.221-0.147,0.353c0,0.045,0.008,0.087,0.019,0.129
		L28.55,8.419l-0.177-0.177l-0.684,0.684V0H0v31.379h27.689V17.512l4.977-4.976l-0.177-0.178l0.388-0.388
		c0.042,0.011,0.085,0.019,0.128,0.019c0.128,0,0.256-0.049,0.354-0.147l6.417-6.418c0.04-0.038,0.973-0.939,0.993-2.193
		C40.781,2.484,40.477,1.787,39.856,1.148z M26.687,18.514v11.863H1.002V1.001h25.685v8.927l-5.592,5.592l0.401,0.401l-0.136,0.784
		H5.408c-0.277,0-0.501,0.224-0.501,0.5c0,0.277,0.224,0.5,0.501,0.5h15.78l-0.423,2.453l4.236-0.732l0.387,0.387L26.687,18.514
		l0.501-0.501L26.687,18.514z M22.066,19.664l-0.929,0.174l-0.065,0.012l0.174-1.006l0.217,0.217l0.467-2.707l2.638,2.639
		l-2.705,0.467L22.066,19.664z M25.388,18.396l-2.876-2.876l5.861-5.861l2.876,2.877L25.388,18.396z M31.957,12.181l-3.23-3.23
		l0.332-0.332l3.23,3.23L31.957,12.181z M39.077,4.707l-6.072,6.072l-2.877-2.877l6.158-6.158c0.001,0,0.002-0.002,0.004-0.002
		c0.006-0.006,0.611-0.601,1.399-0.604c0.491-0.001,0.961,0.223,1.416,0.673c0.009,0.011,0.018,0.021,0.025,0.027
		c0.429,0.435,0.643,0.896,0.638,1.368C39.758,4.037,39.092,4.693,39.077,4.707z"/>
	<path id="XMLID_1363_" fill="#272525" d="M29.046,6.264c0.172,0.172,0.451,0.172,0.623,0l4.618-4.619
		c0.172-0.172,0.172-0.449,0-0.621L34.28,1.017c-0.171-0.172-0.45-0.172-0.622,0L29.04,5.635c-0.171,0.172-0.171,0.451,0,0.622
		L29.046,6.264z"/>
</g>
</svg>
