<?xml version="1.0" encoding="utf-8"?>
<!-- Generator: Adobe Illustrator 17.0.0, SVG Export Plug-In . SVG Version: 6.00 Build 0)  -->
<!DOCTYPE svg PUBLIC "-//W3C//DTD SVG 1.1//EN" "http://www.w3.org/Graphics/SVG/1.1/DTD/svg11.dtd">
<svg version="1.1" id="Ebene_1" xmlns="http://www.w3.org/2000/svg" xmlns:xlink="http://www.w3.org/1999/xlink" x="0px" y="0px"
	 width="28.738px" height="31.666px" viewBox="0 0 28.738 31.666" enable-background="new 0 0 28.738 31.666" xml:space="preserve">
<g id="XMLID_45349_">
	<path id="XMLID_45357_" fill="#272525" d="M0.553,0L0.553,0C0.405,0,0.265,0.058,0.162,0.16C0.058,0.264,0,0.404,0,0.551v30.506
		c0,0.305,0.246,0.551,0.55,0.552l27.635,0.058h0.001c0.146,0,0.287-0.059,0.39-0.162c0.104-0.104,0.162-0.244,0.162-0.391V0.609
		c0-0.305-0.246-0.552-0.55-0.553L0.553,0z M27.634,30.561L1.104,30.506V1.105L27.634,1.16V30.561z"/>
	<path id="XMLID_45354_" fill="#272525" d="M8.916,11.197c0.716,0,1.39-0.279,1.897-0.783c0.509-0.508,0.789-1.182,0.79-1.898
		c0.001-0.719-0.277-1.393-0.784-1.902C10.312,6.106,9.638,5.824,8.92,5.824c-0.001,0-0.002,0-0.003,0
		c-1.48,0-2.685,1.202-2.688,2.682C6.228,9.225,6.507,9.9,7.015,10.408c0.507,0.508,1.181,0.788,1.898,0.789
		C8.914,11.197,8.915,11.197,8.916,11.197z M7.333,8.508c0.002-0.872,0.712-1.58,1.584-1.58c0,0,0.001,0,0.002,0h0.001
		c0.422,0,0.819,0.166,1.118,0.465c0.299,0.3,0.462,0.697,0.462,1.121c0,0.422-0.166,0.819-0.465,1.117
		c-0.299,0.299-0.696,0.463-1.119,0.463H8.914c-0.423,0-0.82-0.165-1.118-0.465C7.497,9.33,7.332,8.932,7.333,8.508z"/>
	<path id="XMLID_45350_" fill="#272525" d="M3.585,23.772h21.604c0.305,0,0.552-0.247,0.552-0.552v-0.144v-6.217V3.551
		c0-0.305-0.247-0.553-0.552-0.553H3.554c-0.305,0-0.552,0.248-0.552,0.553v19.525c0,0.068,0.014,0.133,0.037,0.193
		C3.063,23.551,3.297,23.772,3.585,23.772z M24.637,22.525v0.144h-20.5v-3.645l3.423-4.233l4.154,3.531
		c0.115,0.099,0.266,0.146,0.417,0.129c0.15-0.016,0.288-0.094,0.379-0.215l5.656-7.421l6.47,6.277V22.525z M4.105,4.102h20.532
		v11.453L18.49,9.59c-0.113-0.109-0.267-0.165-0.426-0.154c-0.157,0.012-0.302,0.091-0.397,0.217l-5.681,7.453l-4.142-3.521
		c-0.114-0.096-0.26-0.143-0.409-0.129c-0.148,0.014-0.284,0.087-0.377,0.203l-2.953,3.65V4.102z"/>
</g>
</svg>
