<?xml version="1.0" encoding="utf-8"?>
<!-- Generator: Adobe Illustrator 17.0.0, SVG Export Plug-In . SVG Version: 6.00 Build 0)  -->
<!DOCTYPE svg PUBLIC "-//W3C//DTD SVG 1.1//EN" "http://www.w3.org/Graphics/SVG/1.1/DTD/svg11.dtd">
<svg version="1.1" id="Ebene_1" xmlns="http://www.w3.org/2000/svg" xmlns:xlink="http://www.w3.org/1999/xlink" x="0px" y="0px"
	 width="28.954px" height="31.379px" viewBox="0 0 28.954 31.379" enable-background="new 0 0 28.954 31.379" xml:space="preserve">
<g id="XMLID_45360_">
	<path id="XMLID_45367_" fill="#272525" d="M0,23.366v6.822c0,0.594,0.484,1.078,1.079,1.078h26.795c0.595,0,1.08-0.484,1.08-1.078
		v-6.822c0-0.596-0.484-1.08-1.08-1.08h-2.638c-0.595,0-1.079,0.484-1.079,1.08v3.098H4.796v-3.098c0-0.596-0.484-1.08-1.079-1.08
		H1.079C0.484,22.286,0,22.771,0,23.366z M1.304,23.591h2.188v3.525c0,0.361,0.292,0.652,0.652,0.652H24.81
		c0.36,0,0.652-0.291,0.652-0.652v-3.525h2.188v6.373H1.304V23.591z"/>
	<path id="XMLID_45364_" fill="#272525" d="M18.614,20.187H10.34c-0.634,0-1.151,0.516-1.151,1.15v2.25
		c0,0.635,0.517,1.15,1.151,1.15h8.274c0.635,0,1.151-0.516,1.151-1.15v-2.25C19.765,20.702,19.249,20.187,18.614,20.187z
		 M18.461,23.435h-7.967v-1.943h7.967V23.435z"/>
	<path id="XMLID_45361_" fill="#272525" d="M19.833,13.993h4.228c0.697,0,1.302-0.334,1.541-0.854c0.19-0.41,0.121-0.871-0.185-1.23
		l-4.792-5.617l0,0l-4.793-5.615c-0.306-0.359-0.799-0.564-1.354-0.564h-0.001c-0.555,0-1.049,0.205-1.356,0.564L3.538,11.909
		c-0.306,0.359-0.375,0.818-0.185,1.23c0.239,0.52,0.844,0.854,1.541,0.854h4.372v3.986c0,0.596,0.484,1.08,1.079,1.08h8.409
		c0.595,0,1.079-0.484,1.079-1.08V13.993z M19.18,12.689c-0.36,0-0.652,0.291-0.652,0.652v4.414H10.57v-4.414
		c0-0.361-0.292-0.652-0.652-0.652H4.894c-0.114,0-0.204-0.022-0.266-0.047l9.485-11.119c0.038-0.043,0.176-0.105,0.364-0.105h0
		c0.188,0,0.325,0.062,0.363,0.105l4.792,5.617l0,0l4.694,5.502c-0.062,0.025-0.152,0.047-0.266,0.047H19.18z"/>
</g>
</svg>
