<?xml version="1.0" encoding="utf-8"?>
<!-- Generator: Adobe Illustrator 17.0.0, SVG Export Plug-In . SVG Version: 6.00 Build 0)  -->
<!DOCTYPE svg PUBLIC "-//W3C//DTD SVG 1.1//EN" "http://www.w3.org/Graphics/SVG/1.1/DTD/svg11.dtd">
<svg version="1.1" id="Ebene_1" xmlns="http://www.w3.org/2000/svg" xmlns:xlink="http://www.w3.org/1999/xlink" x="0px" y="0px"
	 width="28.82px" height="30.803px" viewBox="0 0 28.82 30.803" enable-background="new 0 0 28.82 30.803" xml:space="preserve">
<g id="XMLID_45060_">
	<path id="XMLID_45061_" fill="#272525" d="M26.744,17.231c-1.757-1.508-4.371-2.151-7.771-1.917c2.214-1.51,3.67-4.053,3.67-6.929
		C22.643,3.761,18.882,0,14.259,0C9.635,0,5.874,3.761,5.874,8.384c0,2.734,1.316,5.166,3.347,6.698
		c-2.456-0.243-7.626-0.063-9.196,5.385C0.008,20.526,0,20.584,0,20.644v9.522c0,0.352,0.285,0.637,0.636,0.637h27.547
		c0.352,0,0.637-0.285,0.637-0.637v-9.068c0-0.013,0-0.025-0.001-0.036C28.814,20.973,28.674,18.886,26.744,17.231z M7.072,8.384
		c0-3.963,3.224-7.186,7.187-7.186c3.963,0,7.186,3.223,7.186,7.186c0,3.951-3.205,7.168-7.152,7.186h-0.069
		C10.277,15.552,7.072,12.335,7.072,8.384z M14.133,18.124h0.615l0.909,1.878l-1.244,2.418l-0.928-1.824L14.133,18.124z
		 M13.377,16.847c0-0.236,0.192-0.429,0.428-0.429h1.208c0.236,0,0.428,0.193,0.428,0.429c0,0.237-0.192,0.429-0.428,0.429h-1.208
		C13.57,17.276,13.377,17.084,13.377,16.847z M15.614,17.967c0.401-0.216,0.676-0.634,0.676-1.12c0-0.11-0.018-0.215-0.045-0.318
		c0.505-0.123,0.992-0.293,1.457-0.503l-1.56,3.032L15.614,17.967z M13.285,18.011l-0.378,1.446l-1.651-3.246
		c0.418,0.161,0.851,0.291,1.298,0.384c-0.017,0.082-0.026,0.167-0.026,0.253C12.529,17.365,12.841,17.811,13.285,18.011z
		 M27.546,29.529H1.273v-8.794c1.594-5.318,7.331-4.538,8.681-4.274l3.888,7.645c0.108,0.213,0.327,0.347,0.566,0.348h0.001
		c0.239,0,0.457-0.134,0.566-0.345l3.864-7.51c3.148-0.253,5.519,0.278,7.052,1.578c1.47,1.247,1.64,2.776,1.654,2.942V29.529z"/>
</g>
</svg>
